<svg xmlns="http://www.w3.org/2000/svg" height="800" width="1200" version="1.0" viewBox="-26.2728 -26.25 227.6976 157.5"><path d="M51.63 3.173l.01 34.754m25.542-11.61l-15.027 15.84" fill="none" stroke="#9a177d" stroke-width="6.346" stroke-linecap="round"/><path d="M25.9 26.317l15.027 15.84M3.173 52.461l33.227.108" fill="none" stroke="#e88513" stroke-width="6.346" stroke-linecap="round"/><path d="M51.63 101.827l.01-34.754m25.542 11.61l-15.027-15.84" fill="none" stroke="#5cb842" stroke-width="6.346" stroke-linecap="round"/><path d="M25.9 78.683l15.027-15.84" fill="none" stroke="#e88513" stroke-width="6.346" stroke-linecap="round"/><path style="line-height:125%;-inkscape-font-specification:'FreeSans Bold';text-align:start" d="M74.876 46.412v13.171h-2.71V46.412h2.71m11.155 13.171l-5.293-9.106v9.106h-2.71V46.412h2.782l5.221 8.962v-8.962h2.71v13.171h-2.71m13.422 0l-5.294-9.106v9.106h-2.71V46.412h2.782l5.222 8.962v-8.962h2.71v13.171h-2.71m5.764-1.517c-1.156-1.29-1.735-2.945-1.735-4.969 0-2.024.579-3.68 1.735-4.969 1.168-1.288 2.698-1.933 4.59-1.933 1.902 0 3.438.645 4.607 1.933 1.168 1.277 1.752 2.964 1.752 5.06 0 1.95-.578 3.577-1.734 4.878-1.145 1.289-2.68 1.933-4.608 1.933-1.915 0-3.45-.644-4.607-1.933m4.607-9.558c-1.096 0-1.975.421-2.638 1.265-.662.83-.993 1.939-.993 3.324 0 1.385.33 2.5.993 3.343.663.83 1.542 1.246 2.638 1.246 1.084 0 1.958-.415 2.62-1.246.675-.831 1.012-1.922 1.012-3.27 0-1.422-.331-2.554-.994-3.397-.65-.844-1.53-1.265-2.638-1.265m12.86 11.075h-2.295l-4.445-13.171h2.729l2.927 9.92 2.873-9.92h2.728l-4.517 13.171m11.887-2.656h-4.933l-.885 2.656h-2.764l4.68-13.171h2.998l4.554 13.171h-2.783l-.867-2.656m-.74-2.258l-1.717-5.15-1.717 5.15h3.433m9.465-5.999v10.913h-2.71V48.67h-3.994v-2.258h10.552v2.258h-3.848m8.577-2.258v13.171h-2.71V46.412h2.71m8.7 13.171h-2.294l-4.445-13.171h2.728l2.927 9.92 2.873-9.92h2.729l-4.517 13.171m9.266-5.673v3.415h5.292v2.258h-8.002V46.412h8.023v2.258h-5.313v2.982h4.362v2.258h-4.362" font-weight="700" font-size="18" font-family="FreeSans" fill="#9a177d"/></svg>